<?xml version="1.0" encoding="UTF-8"?><svg id="Layer_2" xmlns="http://www.w3.org/2000/svg" viewBox="0 0 1544.73 166.83"><defs><style>.cls-1{fill:#fff;}</style></defs><g id="Layer_1-2"><g><path class="cls-1" d="M0,101.29L94.92,55.47v4.52L3.49,103.76l91.43,49.72v4.73L0,106.22v-4.93Z"/><path class="cls-1" d="M118.54,166.83L175.86,8.83h4.52l-57.32,158h-4.52Z"/><path class="cls-1" d="M289.89,135.4c0,11.51,.82,20.13,1.23,22.81h-4.11c-.62-1.64-1.64-13.56-1.44-22.4-5.75,15.82-19.11,25.27-44.79,25.27-28.97,0-38.42-17.46-38.42-31.43,0-25.48,24.04-32.67,53.21-32.67,18.49,0,24.24,0,30,.21v-10.27c0-16.03-8.01-30.82-35.54-30.82-25.48,0-34.52,11.92-37.39,27.74h-4.31c2.47-16.64,12.74-31.64,42.12-31.64s39.45,15.82,39.45,34.11v49.1Zm-4.31-34.31c-8.01-.21-17.46-.21-30.2-.21-20.34,0-48.49,3.08-48.49,28.76,0,16.44,13.56,27.33,33.9,27.33,33.08,0,44.79-16.44,44.79-41.5v-14.38Z"/><path class="cls-1" d="M329.12,158.2V0h4.31V158.2h-4.31Z"/><path class="cls-1" d="M468.62,106.22c0,28.35-17.88,54.86-52.6,54.86-31.43,0-51.98-24.04-51.98-53.83,0-32.05,22.19-55.06,52.39-55.06,32.05,0,52.19,25.27,52.19,54.04Zm-100.06,1.03c0,29.38,20.96,49.93,47.87,49.93,30.2,0,47.67-23.42,47.67-50.75s-19.11-50.34-47.87-50.34-47.67,22.4-47.67,51.16Z"/><path class="cls-1" d="M499.22,87.12c0-20.14-.21-27.94-.21-32.05h4.11c.21,3.29,.62,19.11,.41,27.53,4.11-10.48,14.79-30.41,44.38-30.41,23.63,0,40.68,15,40.68,44.79v61.23h-4.31v-60.41c0-24.86-13.15-41.5-36.98-41.5-29.79,0-43.76,23.83-43.76,46.64v55.27h-4.31V87.12Z"/><path class="cls-1" d="M613.65,155.33c5.55-6.16,64.31-73.55,84.24-96.36h-78.48v-3.9h84.65v2.88c-5.14,6.37-67.39,77.66-84.03,96.36h85.47l-1.23,3.9h-90.61v-2.88Z"/><path class="cls-1" d="M824.25,106.22c0,28.35-17.88,54.86-52.6,54.86-31.43,0-51.98-24.04-51.98-53.83,0-32.05,22.19-55.06,52.39-55.06,32.05,0,52.19,25.27,52.19,54.04Zm-100.06,1.03c0,29.38,20.96,49.93,47.87,49.93,30.2,0,47.67-23.42,47.67-50.75s-19.11-50.34-47.87-50.34-47.67,22.4-47.67,51.16Z"/><path class="cls-1" d="M943.81,128.62c-6.57,19.72-20.55,32.46-45.61,32.46-33.49,0-50.95-24.65-50.95-53.62,0-31.43,20.14-55.27,50.54-55.27s42.53,18.7,46.02,33.28h-4.52c-5.14-16.44-17.46-29.38-41.71-29.38-25.68,0-45.82,20.14-45.82,51.16,0,28.15,17.05,49.93,46.85,49.93,21.78,0,33.9-10.68,40.89-28.56h4.31Z"/><path class="cls-1" d="M1069.75,106.22c0,28.35-17.88,54.86-52.6,54.86-31.43,0-51.98-24.04-51.98-53.83,0-32.05,22.19-55.06,52.39-55.06,32.05,0,52.19,25.27,52.19,54.04Zm-100.06,1.03c0,29.38,20.96,49.93,47.87,49.93,30.2,0,47.67-23.42,47.67-50.75s-19.11-50.34-47.87-50.34-47.67,22.4-47.67,51.16Z"/><path class="cls-1" d="M1194.04,0V131.08c0,7.19,.21,22.81,.21,27.12h-4.11c-.21-5.34-.41-19.72-.21-28.76-5.34,15-15.41,31.64-46.43,31.64s-50.75-22.19-50.75-53.83c0-35.34,25.68-55.06,52.8-55.06,28.97,0,40.27,17.05,44.17,27.94V0h4.31Zm-96.77,107.04c0,28.56,17.88,49.93,46.23,49.93s46.43-15,46.43-52.39-20.55-48.28-44.79-48.28c-30.61,0-47.87,24.65-47.87,50.75Z"/><path class="cls-1" d="M1229.17,106.43c.41,32.46,19.72,50.75,45.82,50.75,22.19,0,35.75-11.09,41.91-24.66h4.73c-6.57,15.82-21.98,28.56-46.64,28.56-36.57,0-50.34-29.17-50.34-54.24,0-31.85,19.52-54.65,50.34-54.65,38.63,0,48.69,30,48.69,49.93v4.31h-94.51Zm90.2-3.9c-.82-25.27-13.56-46.43-44.79-46.43-27.33,0-44.17,20.75-45.2,46.43h89.99Z"/><path class="cls-1" d="M1349.35,130.67c3.9,17.46,17.88,26.5,38.42,26.5,21.57,0,35.54-8.83,35.54-25.27,0-10.27-2.26-20.96-34.11-26.5-34.72-5.96-38.83-15-38.83-27.33,0-11.09,9.04-25.89,35.75-25.89,29.18,0,37.39,16.44,38.83,27.74h-4.32c-2.05-10.48-8.63-23.83-34.72-23.83-23.83,0-31.03,12.53-31.03,21.78,0,14.59,8.63,18.9,35.75,23.83,31.23,5.75,37.19,16.03,37.19,30,0,18.29-15.41,29.38-40.06,29.38-25.89,0-40.27-13.56-42.74-30.41h4.31Z"/><path class="cls-1" d="M1544.73,112.39l-94.92,45.82v-4.52l91.02-43.76-91.02-49.72v-4.72l94.92,51.98v4.93Z"/></g></g></svg>